# xmcd
#
# Track frame offsets:
#	150
#	19389
#	37466
#	54612
#	69282
#	85854
#	102725
#	117972
#	128322
#	143068
#	159066
#	188762
#
# Disc length: 2915 seconds
#
# Revision: 1
# Processed by: cddbd v1.5.2PL0 Copyright (c) Steve Scherf et al.
# Submitted via: audiograbber 1.83.01
#
DISCID=9f0b610c
DTITLE=Sly Johnson - 74
DYEAR=2010
DGENRE=Other
TTITLE0=Slaave 2 feat. Slum Village
TTITLE1=I'm calling you
TTITLE2=Hey Mama
TTITLE3=Fa fa fa fa fa (sad song)
TTITLE4=Goodbye tomorrow
TTITLE5=Everybody's got to learn sometimes
TTITLE6=Don't justify urself
TTITLE7=Sexy
TTITLE8=(You are a) star feat. Rachel Claudio
TTITLE9=I.S.A.R. (imagination, supastition, action, relation)
TTITLE10=26.06.74
TTITLE11=Piste de données
EXTD=
EXTT0=
EXTT1=
EXTT2=
EXTT3=
EXTT4=
EXTT5=
EXTT6=
EXTT7=
EXTT8=
EXTT9=
EXTT10=
EXTT11=
PLAYORDER=
